<svg width="512" height="512" viewBox="0 0 512 512" fill="none" xmlns="http://www.w3.org/2000/svg">
<path d="M115.415 277.433C79.6154 253.354 32.3524 276.047 30.3574 277.023C28.9283 277.724 27.836 278.963 27.321 280.47C26.8059 281.976 26.9102 283.624 27.6109 285.054C28.3116 286.483 29.5513 287.575 31.0573 288.09C32.5633 288.605 34.2123 288.501 35.6414 287.8C36.0664 287.59 78.6044 267.141 108.718 287.391C125.482 298.664 135.681 320.196 136 344.991C136.235 372.491 145.284 399.192 161.817 421.168C178.243 443.185 201.575 459.061 228.085 466.257C242.137 470.1 255.013 472.02 266.711 472.019C283.044 472.019 297.011 468.266 308.459 460.771C336.569 442.371 343.944 405.871 351.076 370.571C358.767 332.51 366.031 296.56 396.237 280.076C416.837 268.838 444.015 268.976 477.024 280.476C478.527 281 480.176 280.905 481.609 280.213C483.042 279.521 484.142 278.288 484.665 276.785C485.189 275.282 485.095 273.633 484.402 272.2C483.71 270.767 482.477 269.668 480.974 269.144C444.63 256.477 414.187 256.61 390.489 269.544C355.375 288.704 347.21 329.115 339.313 368.195C332.364 402.589 325.8 435.076 301.886 450.733C285.252 461.623 261.486 462.952 231.25 454.685C207.309 448.182 186.239 433.841 171.406 413.955C156.41 394.013 148.206 369.787 147.999 344.836C147.629 316.1 135.448 290.9 115.415 277.433V277.433Z" fill="#545454"/>
<path d="M260.809 333.424C261.134 337.398 262.937 341.106 265.862 343.816C268.787 346.526 272.622 348.041 276.609 348.061H276.942C279.295 348.16 281.64 347.718 283.795 346.77C297.877 339.816 310.674 326.9 321.834 308.379C330.719 293.632 338.419 275.24 343.517 256.591C344.141 254.306 344.706 252.176 345.234 250.191C348.397 238.267 349.958 232.866 353.808 229.791C358.308 226.197 367.526 224.315 384.047 221.906C397.834 219.895 410.717 210.431 420.325 195.257C429.364 180.885 433.98 164.174 433.6 147.2C432.406 112.026 407.913 89.1908 368.08 86.1178C353.186 84.9698 344.521 86.8328 335.344 88.8078C328.334 90.4753 321.193 91.5309 314 91.9628L313.921 91.9679C312.602 90.4679 311.059 88.6519 309.372 86.6679C299.513 75.0559 284.613 57.5078 269.272 49.6198C235.764 32.3888 203.266 38.4489 182.341 65.8319C162.329 92.0208 160.402 129.023 178.046 148.317C189.304 160.627 195.241 167.91 196.451 173.554C197.483 178.369 195.269 183.534 190.162 194.754C189.306 196.635 188.389 198.654 187.419 200.824C179.546 218.481 173.849 237.589 171.378 254.624C168.278 276.024 169.992 294.124 176.478 308.424C177.603 310.62 179.228 312.522 181.222 313.976C183.347 315.74 185.898 316.913 188.62 317.378C191.342 317.843 194.138 317.584 196.728 316.626C199.318 315.668 201.61 314.045 203.374 311.921C205.137 309.796 206.311 307.245 206.776 304.523C207.817 300.423 225.276 233.923 264.476 210.428C265.683 209.731 267.028 209.306 268.416 209.184C269.804 209.062 271.202 209.245 272.512 209.72C273.822 210.195 275.012 210.951 275.999 211.935C276.986 212.919 277.746 214.106 278.225 215.415C293.09 258.461 264.605 320.728 262.825 324.548C261.302 327.247 260.602 330.332 260.809 333.424V333.424ZM273.326 330.365C273.411 330.222 273.489 330.075 273.561 329.925C274.912 327.108 306.453 260.39 289.572 211.506C288.522 208.481 286.801 205.732 284.54 203.465C282.278 201.197 279.534 199.47 276.511 198.412C274.164 197.57 271.688 197.138 269.194 197.136C265.361 197.132 261.6 198.172 258.312 200.143C213.738 226.857 195.812 298.837 195.071 301.888C195.032 302.049 195 302.211 194.971 302.374C194.88 303.053 194.603 303.694 194.172 304.227C193.74 304.76 193.171 305.164 192.525 305.395C191.88 305.626 191.183 305.675 190.511 305.537C189.84 305.399 189.219 305.079 188.717 304.612C188.213 304.232 187.75 303.799 187.338 303.32C175.313 276.58 185.146 235.387 198.378 205.712C199.334 203.568 200.239 201.581 201.083 199.726C206.7 187.382 210.09 179.932 208.183 171.037C206.375 162.602 200.157 154.712 186.901 140.217C173.228 125.266 175.501 94.5368 191.874 73.1168C200.09 62.3668 223.544 39.5968 263.783 60.2899C277.004 67.0899 290.976 83.5439 300.222 94.4319C303.046 97.7589 305.486 100.632 307.382 102.602C316.528 112.102 330.746 125.056 348.547 127.754C349.329 127.877 350.127 127.845 350.896 127.659C351.664 127.473 352.389 127.137 353.027 126.669C353.666 126.202 354.205 125.613 354.615 124.937C355.025 124.26 355.297 123.51 355.416 122.727C355.535 121.945 355.498 121.147 355.307 120.38C355.116 119.612 354.775 118.89 354.304 118.254C353.833 117.619 353.241 117.083 352.562 116.677C351.883 116.271 351.13 116.004 350.347 115.89C342.234 114.66 334.062 110.48 325.155 102.924C329.968 102.238 334.071 101.355 337.867 100.539C346.526 98.6749 354.001 97.0659 367.156 98.0819C400.78 100.676 420.626 118.727 421.606 147.605C422.59 176.605 403.494 206.943 382.312 210.033C362.865 212.869 353.053 215.041 346.321 220.411C339.21 226.083 337.111 233.999 333.632 247.111C333.112 249.073 332.554 251.174 331.938 253.428C323.372 284.769 304.877 322.867 278.632 335.936C278.01 336.05 277.376 336.092 276.743 336.061C276.058 336.104 275.375 335.959 274.767 335.64C274.159 335.321 273.651 334.84 273.298 334.252C272.945 333.663 272.761 332.989 272.766 332.303C272.771 331.616 272.964 330.944 273.325 330.361L273.326 330.365Z" fill="#545454"/>
</svg>
