<svg width="512" height="512" viewBox="0 0 512 512" fill="none" xmlns="http://www.w3.org/2000/svg">
<path d="M104.401 308.129C107.801 313.616 107.37 320.629 106.08 335.977C105.868 338.493 105.641 341.189 105.419 344.091C103.838 364.771 101.419 435.081 136.745 471.576C139.465 474.359 143.004 476.2 146.845 476.828C150.686 477.456 154.627 476.839 158.092 475.067C161.557 473.295 164.365 470.461 166.104 466.979C167.843 463.498 168.423 459.551 167.759 455.716C167.302 450.952 159.81 366.305 195.812 322.482C197.043 321.028 198.577 319.861 200.308 319.064C202.038 318.266 203.923 317.858 205.828 317.868C207.733 317.877 209.613 318.304 211.335 319.119C213.058 319.933 214.581 321.115 215.797 322.582C251.086 366.613 243.716 450.945 243.263 455.721C242.796 458.307 242.908 460.965 243.589 463.503C244.27 466.041 245.504 468.398 247.203 470.403C248.902 472.408 251.024 474.012 253.416 475.101C255.808 476.19 258.411 476.736 261.039 476.7C263.086 476.7 265.119 476.359 267.054 475.693C269.75 474.905 272.225 473.497 274.281 471.582C309.602 435.082 307.187 364.776 305.606 344.096C305.385 341.209 305.16 338.525 304.949 336.019C303.659 320.666 303.232 313.648 306.629 308.161C310.503 301.902 320.484 295.836 338.746 286.143C353.455 278.335 364.165 262.443 368.903 241.384C373.346 221.361 371.808 200.473 364.479 181.317C357.398 163.438 345.472 149.857 329.99 142.045C312.105 133.021 290.379 131.895 265.418 138.698C247.97 143.454 238.828 149.123 229.15 155.124C221.699 159.97 213.841 164.16 205.665 167.646C205.44 167.739 205.219 167.846 205.003 167.946C202.73 166.701 199.983 165.115 196.955 163.366C180.903 154.097 156.645 140.088 135.983 137.348C90.9669 131.378 56.5519 151.4 43.9239 190.9C31.8319 228.732 44.5549 271.456 72.2869 286.138C90.5429 295.806 100.523 301.86 104.401 308.129V308.129ZM55.3549 194.557C60.5009 178.462 78.5009 141.826 134.401 149.243C152.701 151.67 175.719 164.962 190.95 173.757C195.556 176.417 199.534 178.714 202.493 180.186C216.773 187.286 238.214 196.25 259.438 192.107C260.217 191.962 260.96 191.665 261.624 191.231C262.287 190.798 262.858 190.237 263.304 189.582C263.75 188.926 264.061 188.189 264.22 187.412C264.379 186.636 264.383 185.836 264.231 185.058C264.079 184.28 263.775 183.54 263.335 182.88C262.895 182.221 262.33 181.655 261.67 181.215C261.011 180.776 260.27 180.471 259.493 180.319C258.715 180.167 257.914 180.171 257.138 180.33C246.35 182.43 234.12 180.617 219.251 174.611C225.585 171.445 230.585 168.346 235.468 165.317C244.768 159.55 252.804 154.568 268.568 150.271C309.126 139.215 340.015 152.14 353.317 185.73C359.775 202.64 361.122 221.075 357.191 238.744C353.291 256.076 344.516 269.486 333.115 275.538C312.091 286.697 301.804 293.138 296.421 301.838C290.794 310.926 291.621 320.747 292.986 337.017C293.194 339.494 293.418 342.148 293.636 345.003C296.695 385.019 290.951 437.09 265.722 463.163C264.927 463.683 264.058 464.079 263.144 464.339C261.718 464.877 260.142 464.862 258.727 464.296C257.311 463.73 256.159 462.655 255.497 461.282C255.005 460.142 254.868 458.881 255.103 457.662C255.134 457.499 255.158 457.334 255.176 457.169C255.571 453.389 264.4 364.038 225.158 315.075C222.825 312.215 219.888 309.906 216.559 308.314C213.229 306.722 209.588 305.886 205.897 305.866C202.207 305.845 198.557 306.641 195.21 308.197C191.863 309.752 188.901 312.029 186.537 314.863C146.517 363.576 155.443 453.374 155.842 457.173C155.859 457.337 155.883 457.5 155.914 457.662C156.15 458.881 156.012 460.143 155.52 461.283C154.857 462.655 153.705 463.73 152.29 464.296C150.874 464.861 149.299 464.876 147.873 464.338C146.993 464.071 146.15 463.697 145.361 463.225C120.067 437.083 114.322 385.015 117.382 345.002C117.601 342.135 117.825 339.468 118.035 336.979C119.402 320.716 120.228 310.899 114.602 301.809C109.209 293.098 98.9199 286.662 77.9019 275.532C55.4489 263.648 45.1239 226.564 55.3549 194.557V194.557Z" fill="#545454"/>
<path d="M456.619 57.723H194.265L185.232 48.723C180.973 44.454 175.911 41.0701 170.338 38.7663C164.766 36.4626 158.792 35.2845 152.762 35.3H55.3828C51.1407 35.3045 47.0737 36.9916 44.0741 39.9912C41.0745 42.9908 39.3873 47.0579 39.3828 51.3V97.118C39.3828 98.7092 40.015 100.235 41.1402 101.361C42.2654 102.486 43.7915 103.118 45.3828 103.118C46.9741 103.118 48.5002 102.486 49.6255 101.361C50.7507 100.235 51.3828 98.7092 51.3828 97.118V51.3C51.3828 50.2391 51.8042 49.2217 52.5544 48.4715C53.3045 47.7214 54.3219 47.3 55.3828 47.3H57.8608V97.783C57.8608 99.3743 58.493 100.9 59.6182 102.026C60.7434 103.151 62.2695 103.783 63.8608 103.783C65.4521 103.783 66.9782 103.151 68.1035 102.026C69.2287 100.9 69.8608 99.3743 69.8608 97.783V47.3H75.2608V97.783C75.2608 99.3743 75.893 100.9 77.0182 102.026C78.1434 103.151 79.6695 103.783 81.2608 103.783C82.8521 103.783 84.3782 103.151 85.5035 102.026C86.6287 100.9 87.2608 99.3743 87.2608 97.783V47.3H92.6608V97.783C92.6608 99.3743 93.293 100.9 94.4182 102.026C95.5434 103.151 97.0695 103.783 98.6608 103.783C100.252 103.783 101.778 103.151 102.903 102.026C104.029 100.9 104.661 99.3743 104.661 97.783V47.3H110.061V97.783C110.061 99.3743 110.693 100.9 111.818 102.026C112.943 103.151 114.47 103.783 116.061 103.783C117.652 103.783 119.178 103.151 120.303 102.026C121.429 100.9 122.061 99.3743 122.061 97.783V47.3H127.461V97.783C127.461 99.3743 128.093 100.9 129.218 102.026C130.343 103.151 131.87 103.783 133.461 103.783C135.052 103.783 136.578 103.151 137.703 102.026C138.829 100.9 139.461 99.3743 139.461 97.783V47.3H144.861V97.783C144.861 99.3743 145.493 100.9 146.618 102.026C147.743 103.151 149.27 103.783 150.861 103.783C152.452 103.783 153.978 103.151 155.103 102.026C156.229 100.9 156.861 99.3743 156.861 97.783V47.557C164.392 48.4505 171.402 51.8549 176.761 57.221L195.915 76.307C200.175 80.5742 205.236 83.9565 210.809 86.259C216.381 88.5615 222.354 89.7388 228.384 89.723H456.619C460.862 89.723 464.932 88.0372 467.933 85.0367C470.933 82.0361 472.619 77.9664 472.619 73.723C472.619 69.4795 470.933 65.4098 467.933 62.4092C464.932 59.4087 460.862 57.723 456.619 57.723V57.723ZM456.619 77.723H228.384C220.361 77.7451 212.592 74.909 206.471 69.723H456.619C457.68 69.723 458.697 70.1444 459.447 70.8945C460.197 71.6447 460.619 72.6621 460.619 73.723C460.619 74.7838 460.197 75.8012 459.447 76.5514C458.697 77.3015 457.68 77.723 456.619 77.723V77.723Z" fill="#545454"/>
</svg>
