<svg width="512" height="512" viewBox="0 0 512 512" fill="none" xmlns="http://www.w3.org/2000/svg">
<path d="M234.435 226.736C235.044 227.236 235.746 227.612 236.5 227.841C237.254 228.07 238.045 228.148 238.829 228.071C239.614 227.994 240.375 227.764 241.07 227.392C241.765 227.021 242.38 226.517 242.88 225.908C244.561 223.917 246.657 222.32 249.022 221.229C251.387 220.137 253.963 219.578 256.568 219.591C259.173 219.605 261.743 220.189 264.097 221.305C266.451 222.42 268.531 224.039 270.191 226.046C271.198 227.25 272.636 228.011 274.198 228.167C275.759 228.322 277.32 227.86 278.544 226.879C279.769 225.898 280.561 224.477 280.75 222.919C280.939 221.361 280.51 219.791 279.555 218.546C276.779 215.145 273.284 212.4 269.323 210.507C265.362 208.614 261.031 207.621 256.64 207.597C252.25 207.573 247.908 208.519 243.927 210.369C239.945 212.219 236.421 214.926 233.607 218.296C232.599 219.525 232.12 221.105 232.275 222.687C232.43 224.27 233.207 225.726 234.435 226.736V226.736Z" fill="#545454"/>
<path d="M106.453 194.357C127.135 205.306 138.453 212.185 142.914 219.392C147.032 226.045 146.28 234.992 144.914 251.218C144.676 254.051 144.421 257.086 144.171 260.351C144.108 261.175 144.216 262.003 144.488 262.784C144.76 263.564 145.191 264.28 145.752 264.887C146.314 265.493 146.995 265.977 147.753 266.307C148.51 266.638 149.328 266.809 150.154 266.809H191V292.442C191 294.033 191.633 295.559 192.758 296.684C193.883 297.81 195.409 298.442 197 298.442H211V365.591L199.655 371.365C198.953 371.722 198.328 372.215 197.816 372.814C197.304 373.413 196.915 374.107 196.672 374.856C196.428 375.606 196.334 376.396 196.396 377.181C196.457 377.967 196.673 378.733 197.03 379.435C197.388 380.137 197.88 380.762 198.479 381.274C199.078 381.786 199.772 382.175 200.522 382.419C201.271 382.662 202.061 382.756 202.847 382.695C203.632 382.633 204.398 382.417 205.1 382.06L211 379.06V401.475L199.542 407.305C198.84 407.662 198.214 408.154 197.702 408.753C197.19 409.352 196.8 410.046 196.556 410.796C196.312 411.545 196.218 412.336 196.279 413.121C196.341 413.907 196.556 414.673 196.913 415.376C197.271 416.078 197.763 416.704 198.362 417.216C198.961 417.728 199.655 418.118 200.404 418.362C201.154 418.606 201.944 418.7 202.73 418.639C203.516 418.578 204.282 418.362 204.984 418.005L211 414.935V437.35L199.429 443.238C198.724 443.594 198.097 444.085 197.582 444.684C197.067 445.283 196.676 445.977 196.43 446.728C196.185 447.478 196.089 448.27 196.15 449.057C196.211 449.844 196.427 450.612 196.785 451.315C197.143 452.019 197.637 452.645 198.237 453.158C198.838 453.671 199.534 454.06 200.285 454.303C201.036 454.546 201.828 454.638 202.615 454.575C203.402 454.511 204.169 454.293 204.871 453.933L211 450.814V461.191C211 462.301 211.308 463.389 211.889 464.334C212.471 465.279 213.303 466.045 214.293 466.546L253.851 486.546C254.683 486.966 255.601 487.187 256.532 487.191C257.464 487.195 258.383 486.982 259.218 486.57L299.66 466.57C300.663 466.074 301.507 465.307 302.098 464.357C302.688 463.406 303.001 462.31 303 461.191V404L319.1 395.807C319.803 395.449 320.428 394.957 320.94 394.358C321.452 393.759 321.841 393.065 322.085 392.316C322.328 391.567 322.422 390.777 322.361 389.991C322.299 389.206 322.084 388.44 321.726 387.738C321.369 387.036 320.877 386.411 320.278 385.899C319.679 385.387 318.985 384.998 318.236 384.754C317.486 384.51 316.696 384.416 315.911 384.477C315.125 384.539 314.36 384.754 313.657 385.112L303 390.534V368.12L319.214 359.87C320.633 359.148 321.707 357.892 322.2 356.378C322.693 354.865 322.565 353.217 321.843 351.798C321.121 350.379 319.865 349.305 318.352 348.812C316.838 348.319 315.19 348.448 313.771 349.17L303 354.656V332.241L319.327 323.933C320.746 323.211 321.819 321.955 322.312 320.442C322.804 318.929 322.675 317.282 321.953 315.864C321.232 314.446 319.976 313.372 318.463 312.88C316.95 312.387 315.303 312.516 313.884 313.238L303 318.776V298.442H317C318.592 298.442 320.118 297.81 321.243 296.684C322.368 295.559 323 294.033 323 292.442V266.809H362.141C362.968 266.809 363.785 266.638 364.543 266.307C365.3 265.976 365.981 265.492 366.543 264.886C367.104 264.28 367.535 263.564 367.807 262.784C368.079 262.003 368.186 261.175 368.123 260.351C367.875 257.102 367.623 254.081 367.384 251.26C366.02 235.021 365.268 226.075 369.384 219.423C373.839 212.223 385.158 205.334 405.846 194.354C422.215 185.666 434.141 167.941 439.428 144.446C444.417 122.276 442.613 97.7808 434.479 77.2398C426.579 57.2768 413.267 42.1188 395.998 33.4058C376.026 23.3278 351.739 22.0788 323.813 29.6918C304.268 35.0188 294.013 41.3748 283.166 48.1038C274.74 53.5842 265.853 58.3217 256.606 62.2628C256.25 62.4105 255.902 62.5774 255.564 62.7628C252.928 61.3278 249.703 59.4628 246.13 57.4018C228.1 46.9998 200.861 31.2618 177.737 28.1998C127.43 21.5288 88.9774 43.8828 74.8754 87.9998C61.3624 130.271 75.5274 177.985 106.453 194.357V194.357ZM291 457.465L256.588 474.483L223 457.5V444.708L291 410.108V457.465ZM291 396.641L223 431.241V408.829L291 374.229V396.641ZM291 360.762L223 395.362V372.95L291 338.35V360.762ZM291 324.883L223 359.483V298.442H291V324.883ZM311 286.442H203V266.809H311V286.442ZM86.3064 91.6468C92.1584 73.3388 112.627 31.6688 176.159 40.0908C196.922 42.8448 222.925 57.8608 240.131 67.7978C245.306 70.7868 249.776 73.3678 253.087 75.0148C286.461 91.6148 305.399 90.5888 316.74 88.3768C317.514 88.2258 318.25 87.9239 318.906 87.4885C319.563 87.053 320.128 86.4924 320.568 85.8388C321.008 85.1852 321.315 84.4513 321.471 83.679C321.628 82.9067 321.63 82.1112 321.479 81.3378C321.328 80.5645 321.026 79.8284 320.591 79.1717C320.156 78.515 319.595 77.9506 318.941 77.5105C318.288 77.0704 317.554 76.7634 316.782 76.607C316.009 76.4506 315.214 76.4478 314.44 76.5988C301.765 79.0728 287.377 76.8068 269.782 69.4768C276.55 66.1108 283.13 62.3796 289.492 58.2998C300.019 51.7718 309.11 46.1348 326.97 41.2658C373.065 28.7028 408.184 43.4228 423.324 81.6548C430.592 100.009 432.195 121.934 427.724 141.809C423.283 161.545 413.26 176.832 400.224 183.751C353.624 208.487 352.238 214.289 355.424 252.262C355.491 253.092 355.562 253.94 355.637 254.806H156.656C156.73 253.925 156.802 253.063 156.873 252.221C160.073 214.23 158.683 208.428 112.067 183.748C99.5454 177.119 89.9764 163.792 85.1234 146.224C80.3457 128.286 80.7559 109.361 86.3064 91.6468V91.6468Z" fill="#545454"/>
</svg>
