<svg width="512" height="512" viewBox="0 0 512 512" fill="none" xmlns="http://www.w3.org/2000/svg">
<path d="M256.613 110.537C176.113 110.537 110.613 175.879 110.613 256.195C110.613 336.511 176.113 401.853 256.613 401.853C337.113 401.853 402.613 336.511 402.613 256.195C402.613 175.879 337.118 110.537 256.613 110.537V110.537ZM256.613 389.853C182.726 389.853 122.613 329.894 122.613 256.195C122.613 182.496 182.726 122.537 256.613 122.537C330.5 122.537 390.613 182.496 390.613 256.195C390.613 329.894 330.5 389.853 256.613 389.853Z" fill="#545454"/>
<path d="M496.514 250.164H452.514C449.375 146.864 365.921 63.4182 262.614 60.2952V16.0952C262.614 14.5039 261.982 12.9778 260.857 11.8526C259.732 10.7274 258.206 10.0952 256.614 10.0952C255.023 10.0952 253.497 10.7274 252.372 11.8526C251.246 12.9778 250.614 14.5039 250.614 16.0952V60.3002C147.314 63.4232 63.8553 146.868 60.7143 250.169H15.4863C13.895 250.169 12.3689 250.801 11.2437 251.927C10.1185 253.052 9.48633 254.578 9.48633 256.169C9.48633 257.761 10.1185 259.287 11.2437 260.412C12.3689 261.537 13.895 262.169 15.4863 262.169H60.7123C63.8203 365.499 147.287 448.976 250.612 452.1V495.911C250.612 497.503 251.244 499.029 252.37 500.154C253.495 501.279 255.021 501.911 256.612 501.911C258.204 501.911 259.73 501.279 260.855 500.154C261.98 499.029 262.612 497.503 262.612 495.911V452.1C365.938 448.976 449.406 365.5 452.512 262.169H496.512C498.104 262.169 499.63 261.537 500.755 260.412C501.88 259.287 502.512 257.761 502.512 256.169C502.512 254.578 501.88 253.052 500.755 251.927C499.63 250.801 498.104 250.169 496.512 250.169L496.514 250.164ZM256.613 440.2C155.155 440.2 72.6133 357.658 72.6133 256.2C72.6133 154.742 155.155 72.2002 256.613 72.2002C358.071 72.2002 440.613 154.742 440.613 256.2C440.613 357.658 358.071 440.2 256.613 440.2Z" fill="#545454"/>
<path d="M280.534 181.963C274.74 183.508 269.239 185.994 264.25 189.322C261.624 191.026 258.877 192.536 256.03 193.839C255.449 193.507 254.82 193.144 254.159 192.762C247.119 188.697 236.48 182.552 227.042 181.301C207.714 178.734 192.17 186.912 185.45 203.167C178.662 219.588 182.674 239.576 194.583 248.667C195.652 249.485 196.786 250.212 197.975 250.842C204.665 254.384 209.055 256.972 210.264 258.926C211.125 260.316 210.938 263.054 210.47 268.62C210.38 269.694 210.283 270.846 210.188 272.083C209.488 281.212 208.454 312.277 224.434 328.789C225.679 329.993 227.191 330.884 228.847 331.389C230.658 332.04 232.608 332.207 234.503 331.873C236.398 331.539 238.173 330.716 239.652 329.485C241.131 328.254 242.263 326.657 242.935 324.854C243.608 323.051 243.797 321.104 243.485 319.205C242.941 312.425 242.964 305.611 243.555 298.834C244.44 288.639 247.078 274.56 254.615 265.385C254.817 265.178 255.059 265.014 255.325 264.902C255.592 264.791 255.878 264.734 256.167 264.734C256.456 264.735 256.742 264.794 257.008 264.907C257.274 265.021 257.515 265.186 257.715 265.394C271.61 282.732 268.869 316.494 268.622 319.212C268.334 321.105 268.54 323.041 269.219 324.831C269.899 326.622 271.029 328.206 272.501 329.431C273.973 330.656 275.736 331.481 277.62 331.824C279.504 332.167 281.445 332.018 283.254 331.391C284.916 330.885 286.434 329.991 287.682 328.783C303.654 312.276 302.618 281.212 301.92 272.083C301.826 270.85 301.729 269.704 301.64 268.634C301.172 263.065 300.985 260.326 301.846 258.934C303.054 256.984 307.446 254.391 314.138 250.834C315.33 250.2 316.464 249.464 317.529 248.634C330.016 238.926 333.605 215.678 325.212 198.884C321.364 191.189 309.309 174.121 280.534 181.963V181.963ZM310.167 239.168C309.649 239.573 309.097 239.932 308.516 240.242C289.634 250.264 288.36 253.873 289.685 269.642C289.772 270.684 289.866 271.8 289.958 273.001C291.126 288.268 289.232 307.761 280.721 318.539C281.336 309.889 282.509 277.139 267.081 257.89C265.771 256.277 264.119 254.974 262.245 254.075C260.37 253.176 258.32 252.704 256.242 252.693C254.163 252.681 252.108 253.13 250.223 254.008C248.339 254.886 246.673 256.17 245.344 257.769C229.597 276.936 230.77 309.847 231.39 318.536C222.878 307.751 220.99 288.264 222.153 273C222.246 271.8 222.34 270.674 222.428 269.627C223.755 253.849 222.48 250.24 203.587 240.237C202.985 239.919 202.409 239.551 201.867 239.137C194.327 233.379 191.888 219.008 196.54 207.755C199.232 201.244 206.57 190.697 225.464 193.2C232.541 194.139 242.317 199.785 248.158 203.158C250.158 204.314 251.888 205.312 253.237 205.983C259.737 209.217 269.553 213.29 279.572 211.334C281.134 211.029 282.511 210.116 283.4 208.796C284.288 207.476 284.616 205.857 284.311 204.295C284.006 202.733 283.093 201.357 281.773 200.468C280.453 199.579 278.834 199.251 277.272 199.556C275.053 199.956 272.779 199.947 270.563 199.529H270.571C274.575 196.81 279.009 194.788 283.687 193.549C302.187 188.508 310.642 196.592 314.477 204.265C320.319 215.938 318.223 232.905 310.167 239.168V239.168Z" fill="#545454"/>
</svg>
