<svg width="512" height="512" viewBox="0 0 512 512" fill="none" xmlns="http://www.w3.org/2000/svg">
<path d="M497.215 327.328L466.143 320.9C452.37 318.03 438.02 320.538 426.035 327.909C419.492 331.912 412.004 334.108 404.335 334.274C396.667 334.439 389.091 332.567 382.381 328.85L367.1 320.364C366.952 318.532 366.8 316.773 366.665 315.1C365.303 298.89 364.853 291.477 368.475 285.626C372.585 278.987 383.11 272.585 402.356 262.369C414.956 255.683 424.756 243.326 430.702 226.634C436.163 211.304 437.839 193.374 435.422 176.146C430.458 140.763 410.208 115.177 380.792 106.585L386.162 71.6929C386.546 69.1151 386.406 66.4864 385.751 63.9639C385.096 61.4414 383.94 59.0766 382.351 57.0109C380.762 54.9451 378.773 53.2207 376.503 51.9406C374.233 50.6605 371.728 49.8508 369.138 49.5601C366.548 49.2693 363.926 49.5034 361.429 50.2483C358.931 50.9932 356.609 52.2336 354.602 53.8956C352.594 55.5576 350.942 57.607 349.744 59.9215C348.547 62.2361 347.827 64.7682 347.629 67.3669L345.018 104.1C338.423 104.889 331.895 106.172 325.491 107.937C307.191 112.925 297.6 118.873 287.446 125.17C279.599 130.274 271.324 134.685 262.712 138.356C262.434 138.472 262.163 138.602 261.898 138.741C259.475 137.418 256.542 135.725 253.286 133.841C236.432 124.108 210.961 109.399 189.299 106.526C142.133 100.268 106.079 121.24 92.8534 162.617C80.1834 202.254 93.4924 247.004 122.521 262.372C141.762 272.559 152.285 278.948 156.402 285.597C160.024 291.449 159.574 298.859 158.211 315.062C158.035 317.152 157.853 319.366 157.664 321.705L147.806 333.769C140.557 342.586 130.131 348.199 118.78 349.396C107.428 350.594 96.0608 347.279 87.1314 340.169C78.1339 332.961 67.1103 328.741 55.5993 328.1C44.0882 327.458 32.6641 330.427 22.9214 336.591L12.7924 343C11.4656 343.859 10.5312 345.206 10.1923 346.75C9.8534 348.294 10.1374 349.909 10.9825 351.245C11.8276 352.581 13.1656 353.529 14.7059 353.884C16.2461 354.238 17.8641 353.971 19.2084 353.14L29.3384 346.73C36.9687 341.902 45.9158 339.577 54.9312 340.079C63.9466 340.581 72.5803 343.885 79.6274 349.53C90.9532 358.554 105.358 362.793 119.766 361.343C134.174 359.893 147.445 352.868 156.745 341.768C156.391 372.944 160.602 426.622 190.363 457.374C193.178 460.253 196.841 462.156 200.815 462.805C204.789 463.453 208.866 462.814 212.451 460.979C216.035 459.144 218.938 456.211 220.736 452.608C222.534 449.005 223.132 444.921 222.442 440.954C221.969 436.041 214.05 346.848 252 300.654C253.323 299.089 254.973 297.834 256.834 296.976C258.694 296.118 260.721 295.679 262.769 295.689C264.818 295.7 266.84 296.159 268.692 297.035C270.544 297.911 272.181 299.183 273.488 300.761C310.688 347.177 302.896 436.033 302.428 440.961C301.945 443.636 302.058 446.384 302.762 449.01C303.466 451.635 304.742 454.073 306.499 456.147C308.255 458.221 310.449 459.881 312.923 461.007C315.397 462.133 318.09 462.698 320.807 462.661C322.926 462.661 325.029 462.308 327.031 461.618C329.82 460.804 332.38 459.351 334.507 457.374C366.714 424.1 369 363.968 367.957 334.566L376.557 339.341C385.126 344.09 394.801 346.481 404.595 346.27C414.39 346.059 423.953 343.254 432.309 338.141C441.692 332.371 452.926 330.408 463.709 332.653L494.782 339.081C496.335 339.389 497.947 339.071 499.266 338.197C500.586 337.322 501.506 335.961 501.826 334.411C502.147 332.861 501.842 331.246 500.978 329.92C500.113 328.594 498.76 327.663 497.212 327.33L497.215 327.328ZM368.08 110.281L356.709 108.865L357.063 103.882L368.839 105.349L368.08 110.281ZM353.413 155.26L361.013 156.207L346.774 248.718L353.413 155.26ZM362.838 144.341L354.265 143.273L354.635 138.056L363.635 139.177L362.838 144.341ZM365.459 127.311L355.487 126.069L355.857 120.852L366.257 122.152L365.459 127.311ZM366.539 61.3519C366.689 61.3419 366.839 61.3379 366.989 61.3379C368.057 61.3382 369.111 61.5693 370.08 62.0154C371.05 62.4615 371.911 63.112 372.606 63.9222C373.3 64.7325 373.811 65.6833 374.104 66.7096C374.396 67.7359 374.463 68.8133 374.3 69.8679L370.665 93.4839L357.915 91.8999L359.6 68.2169C359.732 66.4272 360.507 64.7456 361.783 63.4835C363.059 62.2213 364.748 61.4641 366.539 61.3519V61.3519ZM169.482 324.5C169.713 321.485 169.949 318.681 170.169 316.064C171.602 299.03 172.469 288.747 166.605 279.278C160.973 270.178 150.186 263.437 128.136 251.764C104.408 239.202 93.4854 200.049 104.283 166.264C109.715 149.27 128.716 110.586 187.721 118.414C207.021 120.974 231.252 134.967 247.285 144.226C252.122 147.019 256.299 149.426 259.401 150.973C290.661 166.52 308.427 165.557 319.07 163.481C319.844 163.33 320.58 163.028 321.237 162.593C321.893 162.157 322.458 161.597 322.898 160.943C323.338 160.289 323.645 159.555 323.801 158.783C323.958 158.011 323.96 157.215 323.809 156.442C323.658 155.669 323.357 154.933 322.921 154.276C322.486 153.619 321.925 153.055 321.271 152.615C320.618 152.175 319.884 151.868 319.112 151.711C318.339 151.555 317.544 151.552 316.77 151.703C305.215 153.956 292.107 151.956 276.132 145.414C282.178 142.364 288.064 139.007 293.767 135.357C303.567 129.281 312.03 124.033 328.645 119.503C333.738 118.103 338.915 117.032 344.145 116.297L331.628 292.566C327.027 282.711 320.304 273.996 311.94 267.043C303.577 260.09 293.78 255.072 283.251 252.348C272.722 249.623 261.721 249.26 251.035 251.284C240.349 253.308 230.242 257.669 221.438 264.055C223.955 251.114 222.778 238.142 212.675 229.588C212.075 229.072 211.378 228.681 210.626 228.436C209.874 228.191 209.08 228.097 208.291 228.16C207.502 228.223 206.734 228.441 206.03 228.802C205.326 229.163 204.7 229.66 204.188 230.264C203.677 230.868 203.29 231.567 203.05 232.321C202.81 233.075 202.722 233.869 202.79 234.657C202.858 235.446 203.081 236.213 203.447 236.915C203.813 237.616 204.314 238.239 204.921 238.746C214.036 246.464 210.585 262.34 206.085 274.3C204.885 277.489 203.543 280.578 202.185 283.458C197.918 289.054 194.471 295.23 191.949 301.8C191.746 302.203 191.589 302.629 191.482 303.068C187.874 312.95 186.423 323.491 187.227 333.981L194.909 444.388C171.712 415.652 166.432 364.392 169.482 324.5V324.5ZM262.7 283.689C258.886 283.668 255.116 284.496 251.661 286.113C248.207 287.73 245.156 290.095 242.728 293.037C200.737 344.149 210.108 438.427 210.528 442.415C210.545 442.58 210.569 442.743 210.6 442.905C210.859 444.247 210.708 445.637 210.166 446.892C209.593 448.19 208.588 449.25 207.322 449.892L201.2 361.871C201.761 353.69 203.11 345.583 205.228 337.662C208.192 326.886 213.885 313.378 224.17 310.228C224.924 309.997 225.624 309.62 226.232 309.119C226.84 308.617 227.343 308.001 227.712 307.305C228.082 306.609 228.311 305.847 228.386 305.063C228.461 304.278 228.381 303.487 228.15 302.733C227.919 301.98 227.542 301.279 227.041 300.672C226.539 300.064 225.923 299.561 225.227 299.191C224.531 298.822 223.769 298.593 222.985 298.518C222.2 298.443 221.409 298.523 220.655 298.754C211.132 301.671 204.478 309.348 199.831 318.379C200.46 314.528 201.45 310.745 202.787 307.079C206.369 301.52 209.599 295.742 212.458 289.779C213.247 288.785 214.058 287.806 214.912 286.86L218.943 282.392C224.558 276.168 231.38 271.152 238.995 267.649C246.61 264.146 254.857 262.229 263.237 262.015C271.616 261.801 279.951 263.294 287.734 266.404C295.518 269.514 302.588 274.175 308.512 280.104C314.627 286.233 319.388 293.577 322.487 301.66C325.586 309.744 326.955 318.388 326.505 327.034L326.377 329.78C322.054 323.367 315.888 318.402 307.099 316.908C306.195 316.75 305.265 316.804 304.384 317.063C303.503 317.323 302.694 317.782 302.019 318.406C301.345 319.029 300.823 319.799 300.494 320.657C300.165 321.514 300.038 322.436 300.123 323.351C295.842 312.543 290.026 302.407 282.855 293.257C280.433 290.247 277.363 287.823 273.873 286.167C270.383 284.51 266.564 283.663 262.7 283.689V283.689ZM314.705 446.889C314.163 445.634 314.012 444.244 314.271 442.902C314.302 442.739 314.326 442.574 314.343 442.408C314.678 439.2 320.797 377.265 301.368 326.508C302.285 327.688 303.611 328.482 305.084 328.733C325.584 332.22 324.384 372.561 324.361 373.033L320.748 450.655C319.484 450.683 318.24 450.342 317.167 449.673C316.093 449.005 315.238 448.039 314.705 446.892V446.889ZM333.257 440.006L335.206 398.122C335.79 397.346 336.174 396.438 336.326 395.479L378.944 118.579C402.866 126.296 419.35 147.969 423.537 177.81C428.056 210.02 416.781 241.123 396.729 251.767C374.678 263.467 363.892 270.225 358.27 279.307C352.409 288.775 353.27 299.06 354.705 316.101C354.924 318.707 355.158 321.501 355.388 324.501C358.29 362.454 353.654 410.7 333.257 440.009V440.006Z" fill="#545454"/>
</svg>
